<?xml version="1.0" standalone="no"?>
<!DOCTYPE svg PUBLIC "-//W3C//DTD SVG 20010904//EN"
 "http://www.w3.org/TR/2001/REC-SVG-20010904/DTD/svg10.dtd">
<svg version="1.0" xmlns="http://www.w3.org/2000/svg"
 width="440.000000pt" height="567.000000pt" viewBox="0 0 440.000000 567.000000"
 preserveAspectRatio="xMidYMid meet">

<g transform="translate(0.000000,567.000000) scale(0.100000,-0.100000)"
fill="#000000" stroke="none">
<path d="M810 2540 l0 -2020 455 2 456 3 0 2015 -1 2015 -455 3 -455 2 0
-2020z"/>
<path d="M1912 4229 l3 -334 220 -6 c251 -6 296 -17 381 -92 86 -76 117 -143
134 -297 14 -119 2 -258 -31 -344 -43 -116 -162 -206 -296 -226 -37 -5 -146
-10 -241 -10 l-172 0 2 -332 3 -333 290 1 c245 1 308 4 410 22 224 39 378 94
520 186 234 152 362 349 432 661 25 110 27 139 27 340 1 208 0 226 -27 329
-93 369 -338 592 -769 701 -170 44 -293 56 -601 62 l-287 6 2 -334z"/>
</g>
</svg>
